{
    "asset" : {
        "generator" : "Khronos glTF Blender I/O v1.6.16",
        "version" : "2.0"
    },
    "scene" : 0,
    "scenes" : [
        {
            "name" : "Scene",
            "nodes" : [
                0,
                1,
                6,
                7
            ]
        }
    ],
    "nodes" : [
        {
            "name" : "Point",
            "translation" : [
                0.014484167098999023,
                5.699782371520996,
                -4.1826629638671875
            ]
        },
        {
            "name" : "Camera",
            "rotation" : [
                -0.05037664622068405,
                -0.08192494511604309,
                -0.004156941082328558,
                0.9953558444976807
            ],
            "translation" : [
                0.2197595238685608,
                16.67003059387207,
                -1.735343098640442
            ]
        },
        {
            "mesh" : 0,
            "name" : "Keycaps",
            "scale" : [
                0.15275722742080688,
                0.15275722742080688,
                0.15275722742080688
            ],
            "translation" : [
                -3.397857427597046,
                0.17488425970077515,
                -0.5335714817047119
            ]
        },
        {
            "mesh" : 1,
            "name" : "Label keys",
            "scale" : [
                0.05450776219367981,
                0.05450776219367981,
                0.05450776219367981
            ],
            "translation" : [
                -2.873190402984619,
                0.3031522333621979,
                0.7421616911888123
            ]
        },
        {
            "mesh" : 2,
            "name" : "Logitech Logo",
            "scale" : [
                0.22090083360671997,
                0.22090083360671997,
                0.22090083360671997
            ],
            "translation" : [
                2.9160404205322266,
                0.1865338683128357,
                -0.9176467657089233
            ]
        },
        {
            "mesh" : 3,
            "name" : "Membrance Switch",
            "scale" : [
                0.1517697125673294,
                0.1517697125673294,
                0.1517697125673294
            ],
            "translation" : [
                -0.23283028602600098,
                0.25080394744873047,
                -0.09217822551727295
            ]
        },
        {
            "children" : [
                2,
                3,
                4,
                5
            ],
            "mesh" : 4,
            "name" : "Body"
        },
        {
            "mesh" : 5,
            "name" : "Floor",
            "scale" : [
                13.569229125976562,
                10,
                10
            ],
            "translation" : [
                -0.03034186363220215,
                -0.01627466082572937,
                0.006531476974487305
            ]
        }
    ],
    "materials" : [
        {
            "doubleSided" : true,
            "name" : "Keyboard",
            "pbrMetallicRoughness" : {
                "baseColorFactor" : [
                    0.00901826098561287,
                    0.00901826098561287,
                    0.00901826098561287,
                    1
                ],
                "metallicFactor" : 0,
                "roughnessFactor" : 0.4000000059604645
            }
        },
        {
            "doubleSided" : true,
            "emissiveFactor" : [
                0.06587617006152868,
                1,
                1
            ],
            "name" : "Letter Glow",
            "pbrMetallicRoughness" : {}
        },
        {
            "doubleSided" : true,
            "name" : "Material.001",
            "pbrMetallicRoughness" : {
                "baseColorFactor" : [
                    0.800000011920929,
                    0.800000011920929,
                    0.800000011920929,
                    1
                ],
                "metallicFactor" : 0,
                "roughnessFactor" : 0.5
            }
        },
        {
            "doubleSided" : true,
            "name" : "Material.002",
            "pbrMetallicRoughness" : {
                "baseColorFactor" : [
                    0.02539406530559063,
                    0.02539406530559063,
                    0.02539406530559063,
                    1
                ],
                "metallicFactor" : 0,
                "roughnessFactor" : 0.699999988079071
            }
        },
        {
            "doubleSided" : true,
            "name" : "Silver",
            "pbrMetallicRoughness" : {
                "baseColorFactor" : [
                    0.4200245141983032,
                    0.4200245141983032,
                    0.4200245141983032,
                    1
                ],
                "metallicFactor" : 0.699999988079071,
                "roughnessFactor" : 0.30000001192092896
            }
        },
        {
            "doubleSided" : true,
            "name" : "Material.003",
            "pbrMetallicRoughness" : {
                "baseColorFactor" : [
                    0.2202576845884323,
                    0.18442445993423462,
                    0,
                    1
                ],
                "metallicFactor" : 0.800000011920929,
                "roughnessFactor" : 0.20000000298023224
            }
        },
        {
            "doubleSided" : true,
            "name" : "Floor",
            "normalTexture" : {
                "index" : 0,
                "scale" : 0.699999988079071
            },
            "pbrMetallicRoughness" : {
                "baseColorTexture" : {
                    "index" : 1
                },
                "metallicFactor" : 0,
                "metallicRoughnessTexture" : {
                    "index" : 2
                }
            }
        }
    ],
    "meshes" : [
        {
            "name" : "Plane.001",
            "primitives" : [
                {
                    "attributes" : {
                        "POSITION" : 0,
                        "NORMAL" : 1,
                        "TEXCOORD_0" : 2
                    },
                    "indices" : 3,
                    "material" : 0
                }
            ]
        },
        {
            "name" : "Plane.034",
            "primitives" : [
                {
                    "attributes" : {
                        "POSITION" : 4,
                        "NORMAL" : 5,
                        "TEXCOORD_0" : 6
                    },
                    "indices" : 7,
                    "material" : 1
                }
            ]
        },
        {
            "name" : "Plane.005",
            "primitives" : [
                {
                    "attributes" : {
                        "POSITION" : 8,
                        "NORMAL" : 9,
                        "TEXCOORD_0" : 10
                    },
                    "indices" : 11,
                    "material" : 1
                }
            ]
        },
        {
            "name" : "Sphere",
            "primitives" : [
                {
                    "attributes" : {
                        "POSITION" : 12,
                        "NORMAL" : 13,
                        "TEXCOORD_0" : 14
                    },
                    "indices" : 15,
                    "material" : 0
                },
                {
                    "attributes" : {
                        "POSITION" : 16,
                        "NORMAL" : 17,
                        "TEXCOORD_0" : 18
                    },
                    "indices" : 19,
                    "material" : 2
                }
            ]
        },
        {
            "name" : "Plane",
            "primitives" : [
                {
                    "attributes" : {
                        "POSITION" : 20,
                        "NORMAL" : 21,
                        "TEXCOORD_0" : 22
                    },
                    "indices" : 23,
                    "material" : 0
                },
                {
                    "attributes" : {
                        "POSITION" : 24,
                        "NORMAL" : 25,
                        "TEXCOORD_0" : 26
                    },
                    "indices" : 27,
                    "material" : 3
                },
                {
                    "attributes" : {
                        "POSITION" : 28,
                        "NORMAL" : 29,
                        "TEXCOORD_0" : 30
                    },
                    "indices" : 31,
                    "material" : 4
                },
                {
                    "attributes" : {
                        "POSITION" : 32,
                        "NORMAL" : 33,
                        "TEXCOORD_0" : 34
                    },
                    "indices" : 35,
                    "material" : 5
                }
            ]
        },
        {
            "name" : "Plane.006",
            "primitives" : [
                {
                    "attributes" : {
                        "POSITION" : 36,
                        "NORMAL" : 37,
                        "TEXCOORD_0" : 38
                    },
                    "indices" : 39,
                    "material" : 6
                }
            ]
        }
    ],
    "textures" : [
        {
            "sampler" : 0,
            "source" : 0
        },
        {
            "sampler" : 0,
            "source" : 1
        },
        {
            "sampler" : 0,
            "source" : 2
        }
    ],
    "images" : [
        {
            "mimeType" : "image/png",
            "name" : "Parquet_flooring_06_2K_Normal",
            "uri" : "Parquet_flooring_06_2K_Normal.png"
        },
        {
            "mimeType" : "image/png",
            "name" : "Parquet_flooring_06_2K_Base_Color",
            "uri" : "Parquet_flooring_06_2K_Base_Color.png"
        },
        {
            "mimeType" : "image/png",
            "name" : "Parquet_flooring_06_2K_Roughness",
            "uri" : "Parquet_flooring_06_2K_Roughness.png"
        }
    ],
    "accessors" : [
        {
            "bufferView" : 0,
            "componentType" : 5126,
            "count" : 55774,
            "max" : [
                45.485416412353516,
                0.8587666153907776,
                9.381882667541504
            ],
            "min" : [
                -1,
                -0.029473435133695602,
                -3.363596200942993
            ],
            "type" : "VEC3"
        },
        {
            "bufferView" : 1,
            "componentType" : 5126,
            "count" : 55774,
            "type" : "VEC3"
        },
        {
            "bufferView" : 2,
            "componentType" : 5126,
            "count" : 55774,
            "type" : "VEC2"
        },
        {
            "bufferView" : 3,
            "componentType" : 5123,
            "count" : 234192,
            "type" : "SCALAR"
        },
        {
            "bufferView" : 4,
            "componentType" : 5126,
            "count" : 49457,
            "max" : [
                115.72189331054688,
                0.07906246185302734,
                1.3370016813278198
            ],
            "min" : [
                -10.362873077392578,
                0.07182195037603378,
                -31.47273826599121
            ],
            "type" : "VEC3"
        },
        {
            "bufferView" : 5,
            "componentType" : 5126,
            "count" : 49457,
            "type" : "VEC3"
        },
        {
            "bufferView" : 6,
            "componentType" : 5126,
            "count" : 49457,
            "type" : "VEC2"
        },
        {
            "bufferView" : 7,
            "componentType" : 5123,
            "count" : 67008,
            "type" : "SCALAR"
        },
        {
            "bufferView" : 8,
            "componentType" : 5126,
            "count" : 399,
            "max" : [
                1.698535680770874,
                1.514570868721421e-08,
                0.5547935962677002
            ],
            "min" : [
                -1.5784943103790283,
                -5.771356370587455e-08,
                -0.44309917092323303
            ],
            "type" : "VEC3"
        },
        {
            "bufferView" : 9,
            "componentType" : 5126,
            "count" : 399,
            "type" : "VEC3"
        },
        {
            "bufferView" : 10,
            "componentType" : 5126,
            "count" : 399,
            "type" : "VEC2"
        },
        {
            "bufferView" : 11,
            "componentType" : 5123,
            "count" : 795,
            "type" : "SCALAR"
        },
        {
            "bufferView" : 12,
            "componentType" : 5126,
            "count" : 82900,
            "max" : [
                24.84119415283203,
                0.26679515838623047,
                6.466653823852539
            ],
            "min" : [
                -21.778806686401367,
                -0.6686285138130188,
                -6.2030463218688965
            ],
            "type" : "VEC3"
        },
        {
            "bufferView" : 13,
            "componentType" : 5126,
            "count" : 82900,
            "type" : "VEC3"
        },
        {
            "bufferView" : 14,
            "componentType" : 5126,
            "count" : 82900,
            "type" : "VEC2"
        },
        {
            "bufferView" : 15,
            "componentType" : 5125,
            "count" : 393000,
            "type" : "SCALAR"
        },
        {
            "bufferView" : 16,
            "componentType" : 5126,
            "count" : 62200,
            "max" : [
                24.3897705078125,
                0.07183551788330078,
                6.015224456787109
            ],
            "min" : [
                -21.327377319335938,
                -0.4634532928466797,
                -5.818315505981445
            ],
            "type" : "VEC3"
        },
        {
            "bufferView" : 17,
            "componentType" : 5126,
            "count" : 62200,
            "type" : "VEC3"
        },
        {
            "bufferView" : 18,
            "componentType" : 5126,
            "count" : 62200,
            "type" : "VEC2"
        },
        {
            "bufferView" : 19,
            "componentType" : 5123,
            "count" : 258600,
            "type" : "SCALAR"
        },
        {
            "bufferView" : 20,
            "componentType" : 5126,
            "count" : 2434,
            "max" : [
                3.7067646980285645,
                0.18620850145816803,
                1.1550780534744263
            ],
            "min" : [
                -3.7067644596099854,
                -7.458254458470037e-09,
                -1.160083293914795
            ],
            "type" : "VEC3"
        },
        {
            "bufferView" : 21,
            "componentType" : 5126,
            "count" : 2434,
            "type" : "VEC3"
        },
        {
            "bufferView" : 22,
            "componentType" : 5126,
            "count" : 2434,
            "type" : "VEC2"
        },
        {
            "bufferView" : 23,
            "componentType" : 5123,
            "count" : 9018,
            "type" : "SCALAR"
        },
        {
            "bufferView" : 24,
            "componentType" : 5126,
            "count" : 946,
            "max" : [
                3.4754395484924316,
                0.08871307969093323,
                0.8577392101287842
            ],
            "min" : [
                -3.4924840927124023,
                -0.012100696563720703,
                -1.1232460737228394
            ],
            "type" : "VEC3"
        },
        {
            "bufferView" : 25,
            "componentType" : 5126,
            "count" : 946,
            "type" : "VEC3"
        },
        {
            "bufferView" : 26,
            "componentType" : 5126,
            "count" : 946,
            "type" : "VEC2"
        },
        {
            "bufferView" : 27,
            "componentType" : 5123,
            "count" : 1866,
            "type" : "SCALAR"
        },
        {
            "bufferView" : 28,
            "componentType" : 5126,
            "count" : 224,
            "max" : [
                -3.097440481185913,
                0.10473309457302094,
                -1.0082967281341553
            ],
            "min" : [
                -3.2321274280548096,
                0.041618213057518005,
                -1.127894401550293
            ],
            "type" : "VEC3"
        },
        {
            "bufferView" : 29,
            "componentType" : 5126,
            "count" : 224,
            "type" : "VEC3"
        },
        {
            "bufferView" : 30,
            "componentType" : 5126,
            "count" : 224,
            "type" : "VEC2"
        },
        {
            "bufferView" : 31,
            "componentType" : 5123,
            "count" : 666,
            "type" : "SCALAR"
        },
        {
            "bufferView" : 32,
            "componentType" : 5126,
            "count" : 256,
            "max" : [
                -3.115374803543091,
                0.08922672271728516,
                -1.0154087543487549
            ],
            "min" : [
                -3.215681791305542,
                0.057763442397117615,
                -1.1233727931976318
            ],
            "type" : "VEC3"
        },
        {
            "bufferView" : 33,
            "componentType" : 5126,
            "count" : 256,
            "type" : "VEC3"
        },
        {
            "bufferView" : 34,
            "componentType" : 5126,
            "count" : 256,
            "type" : "VEC2"
        },
        {
            "bufferView" : 35,
            "componentType" : 5123,
            "count" : 384,
            "type" : "SCALAR"
        },
        {
            "bufferView" : 36,
            "componentType" : 5126,
            "count" : 4,
            "max" : [
                1,
                0,
                1
            ],
            "min" : [
                -1,
                0,
                -1
            ],
            "type" : "VEC3"
        },
        {
            "bufferView" : 37,
            "componentType" : 5126,
            "count" : 4,
            "type" : "VEC3"
        },
        {
            "bufferView" : 38,
            "componentType" : 5126,
            "count" : 4,
            "type" : "VEC2"
        },
        {
            "bufferView" : 39,
            "componentType" : 5123,
            "count" : 6,
            "type" : "SCALAR"
        }
    ],
    "bufferViews" : [
        {
            "buffer" : 0,
            "byteLength" : 669288,
            "byteOffset" : 0
        },
        {
            "buffer" : 0,
            "byteLength" : 669288,
            "byteOffset" : 669288
        },
        {
            "buffer" : 0,
            "byteLength" : 446192,
            "byteOffset" : 1338576
        },
        {
            "buffer" : 0,
            "byteLength" : 468384,
            "byteOffset" : 1784768
        },
        {
            "buffer" : 0,
            "byteLength" : 593484,
            "byteOffset" : 2253152
        },
        {
            "buffer" : 0,
            "byteLength" : 593484,
            "byteOffset" : 2846636
        },
        {
            "buffer" : 0,
            "byteLength" : 395656,
            "byteOffset" : 3440120
        },
        {
            "buffer" : 0,
            "byteLength" : 134016,
            "byteOffset" : 3835776
        },
        {
            "buffer" : 0,
            "byteLength" : 4788,
            "byteOffset" : 3969792
        },
        {
            "buffer" : 0,
            "byteLength" : 4788,
            "byteOffset" : 3974580
        },
        {
            "buffer" : 0,
            "byteLength" : 3192,
            "byteOffset" : 3979368
        },
        {
            "buffer" : 0,
            "byteLength" : 1590,
            "byteOffset" : 3982560
        },
        {
            "buffer" : 0,
            "byteLength" : 994800,
            "byteOffset" : 3984152
        },
        {
            "buffer" : 0,
            "byteLength" : 994800,
            "byteOffset" : 4978952
        },
        {
            "buffer" : 0,
            "byteLength" : 663200,
            "byteOffset" : 5973752
        },
        {
            "buffer" : 0,
            "byteLength" : 1572000,
            "byteOffset" : 6636952
        },
        {
            "buffer" : 0,
            "byteLength" : 746400,
            "byteOffset" : 8208952
        },
        {
            "buffer" : 0,
            "byteLength" : 746400,
            "byteOffset" : 8955352
        },
        {
            "buffer" : 0,
            "byteLength" : 497600,
            "byteOffset" : 9701752
        },
        {
            "buffer" : 0,
            "byteLength" : 517200,
            "byteOffset" : 10199352
        },
        {
            "buffer" : 0,
            "byteLength" : 29208,
            "byteOffset" : 10716552
        },
        {
            "buffer" : 0,
            "byteLength" : 29208,
            "byteOffset" : 10745760
        },
        {
            "buffer" : 0,
            "byteLength" : 19472,
            "byteOffset" : 10774968
        },
        {
            "buffer" : 0,
            "byteLength" : 18036,
            "byteOffset" : 10794440
        },
        {
            "buffer" : 0,
            "byteLength" : 11352,
            "byteOffset" : 10812476
        },
        {
            "buffer" : 0,
            "byteLength" : 11352,
            "byteOffset" : 10823828
        },
        {
            "buffer" : 0,
            "byteLength" : 7568,
            "byteOffset" : 10835180
        },
        {
            "buffer" : 0,
            "byteLength" : 3732,
            "byteOffset" : 10842748
        },
        {
            "buffer" : 0,
            "byteLength" : 2688,
            "byteOffset" : 10846480
        },
        {
            "buffer" : 0,
            "byteLength" : 2688,
            "byteOffset" : 10849168
        },
        {
            "buffer" : 0,
            "byteLength" : 1792,
            "byteOffset" : 10851856
        },
        {
            "buffer" : 0,
            "byteLength" : 1332,
            "byteOffset" : 10853648
        },
        {
            "buffer" : 0,
            "byteLength" : 3072,
            "byteOffset" : 10854980
        },
        {
            "buffer" : 0,
            "byteLength" : 3072,
            "byteOffset" : 10858052
        },
        {
            "buffer" : 0,
            "byteLength" : 2048,
            "byteOffset" : 10861124
        },
        {
            "buffer" : 0,
            "byteLength" : 768,
            "byteOffset" : 10863172
        },
        {
            "buffer" : 0,
            "byteLength" : 48,
            "byteOffset" : 10863940
        },
        {
            "buffer" : 0,
            "byteLength" : 48,
            "byteOffset" : 10863988
        },
        {
            "buffer" : 0,
            "byteLength" : 32,
            "byteOffset" : 10864036
        },
        {
            "buffer" : 0,
            "byteLength" : 12,
            "byteOffset" : 10864068
        }
    ],
    "samplers" : [
        {
            "magFilter" : 9729,
            "minFilter" : 9987
        }
    ],
    "buffers" : [
        {
            "byteLength" : 10864080,
            "uri" : "Keyboard01.bin"
        }
    ]
}
